<mxfile host="app.diagrams.net" modified="2022-08-13T16:43:00.696Z" agent="5.0 (Windows NT 10.0; Win64; x64) AppleWebKit/537.36 (KHTML, like Gecko) Chrome/104.0.0.0 Safari/537.36" etag="hHTrQfhO4QkvrgL6o6jc" version="20.2.3" type="github">
  <diagram id="aS9pjdUC0Do7hMSleVWt" name="第 1 页">
    <mxGraphModel dx="2426" dy="1320" grid="0" gridSize="10" guides="1" tooltips="1" connect="1" arrows="1" fold="1" page="1" pageScale="1" pageWidth="1654" pageHeight="1169" background="none" math="0" shadow="0">
      <root>
        <mxCell id="0" />
        <mxCell id="1" parent="0" />
        <mxCell id="eDFqkNTLr4-eCkODvhOK-2" value="PropertyResolver" style="swimlane;fontStyle=0;childLayout=stackLayout;horizontal=1;startSize=26;fillColor=#CCFFCC;horizontalStack=0;resizeParent=1;resizeParentMax=0;resizeLast=0;collapsible=1;marginBottom=0;direction=east;strokeColor=default;swimlaneLine=1;glass=0;rounded=0;shadow=0;" parent="1" vertex="1" collapsed="1">
          <mxGeometry x="705" y="154" width="130" height="30" as="geometry">
            <mxRectangle x="758" y="56" width="180" height="52" as="alternateBounds" />
          </mxGeometry>
        </mxCell>
        <mxCell id="eDFqkNTLr4-eCkODvhOK-3" value="" style="text;strokeColor=none;fillColor=#CCFFCC;align=left;verticalAlign=top;spacingLeft=4;spacingRight=4;overflow=hidden;rotatable=0;points=[[0,0.5],[1,0.5]];portConstraint=eastwest;" parent="eDFqkNTLr4-eCkODvhOK-2" vertex="1">
          <mxGeometry y="26" width="180" height="26" as="geometry" />
        </mxCell>
        <mxCell id="eDFqkNTLr4-eCkODvhOK-7" value="AbstractEnvironment" style="swimlane;fontStyle=0;childLayout=stackLayout;horizontal=1;startSize=26;fillColor=#CCFFFF;horizontalStack=0;resizeParent=1;resizeParentMax=0;resizeLast=0;collapsible=1;marginBottom=0;direction=east;strokeColor=default;swimlaneLine=1;glass=0;rounded=0;shadow=0;" parent="1" vertex="1" collapsed="1">
          <mxGeometry x="695.5" y="446" width="149" height="30" as="geometry">
            <mxRectangle x="604" y="162" width="183" height="52" as="alternateBounds" />
          </mxGeometry>
        </mxCell>
        <mxCell id="eDFqkNTLr4-eCkODvhOK-8" value="" style="text;strokeColor=none;fillColor=#CCFFFF;align=left;verticalAlign=top;spacingLeft=4;spacingRight=4;overflow=hidden;rotatable=0;points=[[0,0.5],[1,0.5]];portConstraint=eastwest;" parent="eDFqkNTLr4-eCkODvhOK-7" vertex="1">
          <mxGeometry y="26" width="183" height="26" as="geometry" />
        </mxCell>
        <mxCell id="eDFqkNTLr4-eCkODvhOK-10" value="ConfigurablePropertyResolver" style="swimlane;fontStyle=0;childLayout=stackLayout;horizontal=1;startSize=26;fillColor=#CCFFCC;horizontalStack=0;resizeParent=1;resizeParentMax=0;resizeLast=0;collapsible=1;marginBottom=0;direction=east;strokeColor=default;swimlaneLine=1;glass=0;rounded=0;shadow=0;" parent="1" vertex="1" collapsed="1">
          <mxGeometry x="796" y="268" width="202" height="30" as="geometry">
            <mxRectangle x="955" y="162" width="180" height="52" as="alternateBounds" />
          </mxGeometry>
        </mxCell>
        <mxCell id="eDFqkNTLr4-eCkODvhOK-11" value="" style="text;strokeColor=none;fillColor=#CCFFCC;align=left;verticalAlign=top;spacingLeft=4;spacingRight=4;overflow=hidden;rotatable=0;points=[[0,0.5],[1,0.5]];portConstraint=eastwest;" parent="eDFqkNTLr4-eCkODvhOK-10" vertex="1">
          <mxGeometry y="26" width="180" height="26" as="geometry" />
        </mxCell>
        <mxCell id="rqdoCPFN9nggNmxES_CL-17" value="" style="endArrow=classic;html=1;rounded=0;dashed=1;entryX=0.5;entryY=1;entryDx=0;entryDy=0;exitX=0.5;exitY=0;exitDx=0;exitDy=0;" parent="1" edge="1" target="GVNp9K_By8bRqbL6RcLQ-3" source="eDFqkNTLr4-eCkODvhOK-7">
          <mxGeometry width="50" height="50" relative="1" as="geometry">
            <mxPoint x="630" y="230" as="sourcePoint" />
            <mxPoint x="749" y="198" as="targetPoint" />
          </mxGeometry>
        </mxCell>
        <mxCell id="rqdoCPFN9nggNmxES_CL-21" value="" style="endArrow=classic;html=1;rounded=0;entryX=0.75;entryY=1;entryDx=0;entryDy=0;exitX=0.5;exitY=0;exitDx=0;exitDy=0;" parent="1" source="eDFqkNTLr4-eCkODvhOK-10" target="eDFqkNTLr4-eCkODvhOK-2" edge="1">
          <mxGeometry width="50" height="50" relative="1" as="geometry">
            <mxPoint x="987" y="268" as="sourcePoint" />
            <mxPoint x="1042" y="214" as="targetPoint" />
          </mxGeometry>
        </mxCell>
        <mxCell id="GVNp9K_By8bRqbL6RcLQ-1" value="Environment" style="swimlane;fontStyle=0;childLayout=stackLayout;horizontal=1;startSize=26;fillColor=#CCFFCC;horizontalStack=0;resizeParent=1;resizeParentMax=0;resizeLast=0;collapsible=1;marginBottom=0;direction=east;strokeColor=default;swimlaneLine=1;glass=0;rounded=0;shadow=0;" vertex="1" collapsed="1" parent="1">
          <mxGeometry x="589" y="268" width="116" height="30" as="geometry">
            <mxRectangle x="955" y="162" width="180" height="52" as="alternateBounds" />
          </mxGeometry>
        </mxCell>
        <mxCell id="GVNp9K_By8bRqbL6RcLQ-2" value="" style="text;strokeColor=none;fillColor=#CCFFCC;align=left;verticalAlign=top;spacingLeft=4;spacingRight=4;overflow=hidden;rotatable=0;points=[[0,0.5],[1,0.5]];portConstraint=eastwest;" vertex="1" parent="GVNp9K_By8bRqbL6RcLQ-1">
          <mxGeometry y="26" width="180" height="26" as="geometry" />
        </mxCell>
        <mxCell id="GVNp9K_By8bRqbL6RcLQ-3" value="ConfigurableEnvironment" style="swimlane;fontStyle=0;childLayout=stackLayout;horizontal=1;startSize=26;fillColor=#CCFFCC;horizontalStack=0;resizeParent=1;resizeParentMax=0;resizeLast=0;collapsible=1;marginBottom=0;direction=east;strokeColor=default;swimlaneLine=1;glass=0;rounded=0;shadow=0;" vertex="1" collapsed="1" parent="1">
          <mxGeometry x="683.5" y="365" width="173" height="30" as="geometry">
            <mxRectangle x="955" y="162" width="180" height="52" as="alternateBounds" />
          </mxGeometry>
        </mxCell>
        <mxCell id="GVNp9K_By8bRqbL6RcLQ-4" value="" style="text;strokeColor=none;fillColor=#CCFFCC;align=left;verticalAlign=top;spacingLeft=4;spacingRight=4;overflow=hidden;rotatable=0;points=[[0,0.5],[1,0.5]];portConstraint=eastwest;" vertex="1" parent="GVNp9K_By8bRqbL6RcLQ-3">
          <mxGeometry y="26" width="180" height="26" as="geometry" />
        </mxCell>
        <mxCell id="GVNp9K_By8bRqbL6RcLQ-5" value="StandardEnvironment" style="swimlane;fontStyle=0;childLayout=stackLayout;horizontal=1;startSize=26;fillColor=#CCFFFF;horizontalStack=0;resizeParent=1;resizeParentMax=0;resizeLast=0;collapsible=1;marginBottom=0;direction=east;strokeColor=default;swimlaneLine=1;glass=0;rounded=0;shadow=0;" vertex="1" collapsed="1" parent="1">
          <mxGeometry x="692.5" y="531" width="155" height="30" as="geometry">
            <mxRectangle x="604" y="162" width="183" height="52" as="alternateBounds" />
          </mxGeometry>
        </mxCell>
        <mxCell id="GVNp9K_By8bRqbL6RcLQ-6" value="" style="text;strokeColor=none;fillColor=#CCFFFF;align=left;verticalAlign=top;spacingLeft=4;spacingRight=4;overflow=hidden;rotatable=0;points=[[0,0.5],[1,0.5]];portConstraint=eastwest;" vertex="1" parent="GVNp9K_By8bRqbL6RcLQ-5">
          <mxGeometry y="26" width="183" height="26" as="geometry" />
        </mxCell>
        <mxCell id="GVNp9K_By8bRqbL6RcLQ-10" value="" style="endArrow=classic;html=1;rounded=0;entryX=0.5;entryY=1;entryDx=0;entryDy=0;exitX=0.5;exitY=0;exitDx=0;exitDy=0;" edge="1" parent="1" source="GVNp9K_By8bRqbL6RcLQ-5" target="eDFqkNTLr4-eCkODvhOK-7">
          <mxGeometry width="50" height="50" relative="1" as="geometry">
            <mxPoint x="274" y="350" as="sourcePoint" />
            <mxPoint x="287" y="271" as="targetPoint" />
          </mxGeometry>
        </mxCell>
        <mxCell id="GVNp9K_By8bRqbL6RcLQ-11" value="" style="endArrow=classic;html=1;rounded=0;entryX=0.5;entryY=1;entryDx=0;entryDy=0;exitX=0.75;exitY=0;exitDx=0;exitDy=0;" edge="1" parent="1" source="GVNp9K_By8bRqbL6RcLQ-3" target="eDFqkNTLr4-eCkODvhOK-10">
          <mxGeometry width="50" height="50" relative="1" as="geometry">
            <mxPoint x="284" y="360" as="sourcePoint" />
            <mxPoint x="297" y="281" as="targetPoint" />
          </mxGeometry>
        </mxCell>
        <mxCell id="GVNp9K_By8bRqbL6RcLQ-12" value="" style="endArrow=classic;html=1;rounded=0;entryX=0.5;entryY=1;entryDx=0;entryDy=0;exitX=0.25;exitY=0;exitDx=0;exitDy=0;" edge="1" parent="1" source="GVNp9K_By8bRqbL6RcLQ-3" target="GVNp9K_By8bRqbL6RcLQ-1">
          <mxGeometry width="50" height="50" relative="1" as="geometry">
            <mxPoint x="294" y="370" as="sourcePoint" />
            <mxPoint x="307" y="291" as="targetPoint" />
          </mxGeometry>
        </mxCell>
        <mxCell id="GVNp9K_By8bRqbL6RcLQ-13" value="" style="endArrow=classic;html=1;rounded=0;entryX=0.25;entryY=1;entryDx=0;entryDy=0;exitX=0.5;exitY=0;exitDx=0;exitDy=0;" edge="1" parent="1" source="GVNp9K_By8bRqbL6RcLQ-1" target="eDFqkNTLr4-eCkODvhOK-2">
          <mxGeometry width="50" height="50" relative="1" as="geometry">
            <mxPoint x="304" y="380" as="sourcePoint" />
            <mxPoint x="317" y="301" as="targetPoint" />
          </mxGeometry>
        </mxCell>
      </root>
    </mxGraphModel>
  </diagram>
</mxfile>
